{
  "accessors": [
    {
      "bufferView": 2,
      "componentType": 5126,
      "count": 1902,
      "max": [
        0.08046853542327881,
        0.14745117723941803,
        0.05994197726249695
      ],
      "min": [
        -0.08046853542327881,
        -0.011621441692113876,
        0.0017083585262298584
      ],
      "type": "VEC3"
    },
    {
      "bufferView": 2,
      "byteOffset": 22824,
      "componentType": 5126,
      "count": 1902,
      "max": [
        0.9999788999557495,
        1.0,
        0.999991774559021
      ],
      "min": [
        -0.9999788403511047,
        -1.0,
        -1.0
      ],
      "type": "VEC3"
    },
    {
      "bufferView": 3,
      "componentType": 5126,
      "count": 1902,
      "max": [
        1.0,
        1.0,
        1.0,
        1.0
      ],
      "min": [
        -1.0,
        -1.0,
        -0.999958872795105,
        -1.0
      ],
      "type": "VEC4"
    },
    {
      "bufferView": 1,
      "componentType": 5126,
      "count": 1902,
      "max": [
        0.9937680959701538,
        0.9902962446212769
      ],
      "min": [
        0.030553370714187622,
        0.0023668110370635986
      ],
      "type": "VEC2"
    },
    {
      "bufferView": 0,
      "componentType": 5125,
      "count": 6594,
      "type": "SCALAR"
    }
  ],
  "asset": {
    "extras": {
      "author": "ArnoldE (https://sketchfab.com/arnoldescorcia906)",
      "license": "CC-BY-4.0 (http://creativecommons.org/licenses/by/4.0/)",
      "source": "https://sketchfab.com/3d-models/glasses-spy-tron-2-gafas-pbr-1a29942363754f798ac2dd9e61d857fc",
      "title": "Glasses Spy tron 2 - Gafas PBR"
    },
    "generator": "Sketchfab-12.66.0",
    "version": "2.0"
  },
  "bufferViews": [
    {
      "buffer": 0,
      "byteLength": 26376,
      "name": "floatBufferViews",
      "target": 34963
    },
    {
      "buffer": 0,
      "byteLength": 15216,
      "byteOffset": 26376,
      "byteStride": 8,
      "name": "floatBufferViews",
      "target": 34962
    },
    {
      "buffer": 0,
      "byteLength": 45648,
      "byteOffset": 41592,
      "byteStride": 12,
      "name": "floatBufferViews",
      "target": 34962
    },
    {
      "buffer": 0,
      "byteLength": 30432,
      "byteOffset": 87240,
      "byteStride": 16,
      "name": "floatBufferViews",
      "target": 34962
    }
  ],
  "buffers": [
    {
      "byteLength": 117672,
      "uri": "scene.bin"
    }
  ],
  "images": [
    {
      "uri": "textures/MatSpyTron_baseColor.jpeg"
    },
    {
      "uri": "textures/MatSpyTron_metallicRoughness.png"
    },
    {
      "uri": "textures/MatSpyTron_normal.jpeg"
    }
  ],
  "materials": [
    {
      "doubleSided": true,
      "name": "MatSpyTron",
      "normalTexture": {
        "index": 2
      },
      "pbrMetallicRoughness": {
        "baseColorTexture": {
          "index": 0
        },
        "metallicRoughnessTexture": {
          "index": 1
        }
      }
    }
  ],
  "meshes": [
    {
      "name": "ModSpyTron_MatSpyTron_0",
      "primitives": [
        {
          "attributes": {
            "NORMAL": 1,
            "POSITION": 0,
            "TANGENT": 2,
            "TEXCOORD_0": 3
          },
          "indices": 4,
          "material": 0,
          "mode": 4
        }
      ]
    }
  ],
  "nodes": [
    {
      "children": [
        1
      ],
      "matrix": [
        0.012552596628665924,
        0.0,
        0.0,
        0.0,
        0.0,
        2.787236359195405e-18,
        -0.012552596628665924,
        0.0,
        0.0,
        0.012552596628665924,
        2.787236359195405e-18,
        0.0,
        0.0,
        1.200225597131066e-06,
        -2.143606820936836e-07,
        1.0
      ],
      "name": "Sketchfab_model"
    },
    {
      "children": [
        2
      ],
      "matrix": [
        1.0,
        0.0,
        0.0,
        0.0,
        0.0,
        0.0,
        1.0,
        0.0,
        0.0,
        -1.0,
        0.0,
        0.0,
        0.0,
        0.0,
        0.0,
        1.0
      ],
      "name": "4385fbbacebc4314a4ae5d74ffd65fcf.fbx"
    },
    {
      "children": [
        3
      ],
      "name": "RootNode"
    },
    {
      "children": [
        4
      ],
      "matrix": [
        100.0,
        0.0,
        0.0,
        0.0,
        0.0,
        -1.629206793918314e-05,
        -99.99999999999868,
        0.0,
        0.0,
        99.99999999999868,
        -1.629206793918314e-05,
        0.0,
        0.0,
        0.0,
        0.0,
        1.0
      ],
      "name": "ModSpyTron"
    },
    {
      "mesh": 0,
      "name": "ModSpyTron_MatSpyTron_0"
    }
  ],
  "samplers": [
    {
      "magFilter": 9728,
      "minFilter": 9986,
      "wrapS": 10497,
      "wrapT": 10497
    },
    {
      "magFilter": 9729,
      "minFilter": 9729,
      "wrapS": 10497,
      "wrapT": 10497
    },
    {
      "magFilter": 9729,
      "minFilter": 9987,
      "wrapS": 10497,
      "wrapT": 10497
    }
  ],
  "scene": 0,
  "scenes": [
    {
      "name": "Sketchfab_Scene",
      "nodes": [
        0
      ]
    }
  ],
  "textures": [
    {
      "sampler": 0,
      "source": 0
    },
    {
      "sampler": 1,
      "source": 1
    },
    {
      "sampler": 2,
      "source": 2
    }
  ]
}
